<svg width="252" height="59" viewBox="0 0 252 59" fill="none" xmlns="http://www.w3.org/2000/svg">
<path d="M3.04127 10.3636H10.6444V23.1977H29.6219V10.3636H37.2251V44H29.6219V30.0102H10.6444V44H3.04127V10.3636ZM43.3143 10.3636H73.8486V17.2369H50.9174V23.441H71.5372V30.3143H50.9174V37.0051H74.7001V44H43.3143V10.3636ZM79.1632 10.3636H87.8612L98.6273 28.3071H99.1139L109.515 10.3636H118.213L102.398 35.6061V44H94.9169V35.6061L79.1632 10.3636Z" fill="white"/>
<circle cx="122.524" cy="29.5004" r="4.52381" fill="#386FDE"/>
<path d="M152.918 24.4751H168.793V44H164.049L163.015 41.3845C159.791 43.635 156.324 44.8516 151.276 44.8516C140.692 44.8516 132.481 38.0999 132.481 27.2122C132.481 16.3245 140.692 9.57287 151.276 9.57287C159.061 9.57287 164.353 12.3708 168.185 18.0884L162.163 21.4946C159.487 18.0276 156.689 16.507 151.154 16.507C144.402 16.507 140.023 20.5823 140.023 27.2122C140.023 33.8422 144.402 37.9175 151.154 37.9175C155.959 37.9175 158.757 37.0051 161.494 34.8762V31.0442L152.918 30.7401V24.4751ZM175.203 10.3636H205.738V17.2369H182.806V23.441H203.426V30.3143H182.806V37.0051H206.589V44H175.203V10.3636ZM212.269 10.3636H219.446L239.579 32.9906V10.3636H247.122V44H239.883L219.75 21.3122V44H212.269V10.3636Z" fill="white"/>
</svg>
