<svg width="68" height="78" viewBox="0 0 68 78" fill="none" xmlns="http://www.w3.org/2000/svg">
<g clip-path="url(#clip0_963_1077)">
<path d="M32.0615 1.58805C33.1444 0.962837 34.4786 0.962837 35.5615 1.58805L65.3369 18.7785C66.4196 19.4038 67.0869 20.5595 67.0869 21.8098V56.1906C67.0869 57.4409 66.4196 58.5966 65.3369 59.2219L35.5615 76.4123C34.4786 77.0375 33.1444 77.0375 32.0615 76.4123L2.28613 59.2219C1.20341 58.5966 0.536133 57.4409 0.536133 56.1906V21.8098C0.536133 20.5595 1.20341 19.4038 2.28613 18.7785L32.0615 1.58805Z" fill="#DFF7FF" stroke="black"/>
<path d="M35.2037 17.8939C35.1501 17.7291 35.2088 17.5487 35.3489 17.4468L36.2954 16.7588C36.6088 16.531 36.4476 16.0353 36.0602 16.0353H34.8912C34.718 16.0353 34.5645 15.9239 34.5109 15.7593L34.1479 14.6461C34.0278 14.2778 33.5066 14.2782 33.3871 14.6468L33.0267 15.7586C32.9732 15.9236 32.8196 16.0353 32.6462 16.0353H31.4777C31.0902 16.0353 30.9291 16.531 31.2425 16.7588L32.1887 17.4466C32.3289 17.5485 32.3875 17.7293 32.3338 17.8941L31.972 19.0036C31.8519 19.3722 32.2739 19.6791 32.5875 19.4512L33.5314 18.7651C33.6716 18.6632 33.8615 18.6631 34.0017 18.765L34.9494 19.4533C35.2629 19.681 35.6846 19.3746 35.5649 19.0061L35.2037 17.8939ZM35.2037 62.3399C35.1501 62.1751 35.2088 61.9946 35.3489 61.8928L36.2954 61.2048C36.6088 60.977 36.4476 60.4812 36.0602 60.4812H34.8912C34.718 60.4812 34.5645 60.3698 34.5109 60.2052L34.1479 59.0921C34.0278 58.7237 33.5066 58.7242 33.3871 59.0927L33.0267 60.2046C32.9732 60.3695 32.8196 60.4812 32.6462 60.4812H31.4777C31.0902 60.4812 30.9291 60.977 31.2425 61.2048L32.1887 61.8926C32.3289 61.9945 32.3875 62.1752 32.3338 62.3401L31.972 63.4496C31.8519 63.8182 32.2739 64.1251 32.5875 63.8971L33.5314 63.211C33.6716 63.1091 33.8615 63.1091 34.0017 63.2109L34.9494 63.8993C35.2629 64.127 35.6846 63.8206 35.5649 63.4521L35.2037 62.3399ZM12.9821 40.1152C12.9287 39.9505 12.9873 39.7701 13.1274 39.6683L14.074 38.9802C14.3874 38.7524 14.2263 38.2567 13.8388 38.2567H12.6669C12.4936 38.2567 12.34 38.145 12.2865 37.9802L11.9252 36.8679C11.8055 36.4995 11.2843 36.4993 11.1644 36.8677L10.8023 37.9804C10.7487 38.1452 10.5952 38.2567 10.4219 38.2567H9.25307C8.86562 38.2567 8.70448 38.7524 9.01788 38.9802L9.96436 39.6682C10.1045 39.77 10.1631 39.9505 10.1096 40.1153L9.74859 41.2268C9.62889 41.5954 10.0508 41.9018 10.3642 41.6739L11.31 40.9865C11.4502 40.8846 11.6401 40.8846 11.7803 40.9865L12.727 41.6746C13.0404 41.9024 13.4622 41.5962 13.3427 41.2277L12.9821 40.1152ZM15.8207 29.1284C15.7673 28.9636 15.8259 28.7833 15.966 28.6814L16.9126 27.9934C17.226 27.7656 17.0649 27.2698 16.6774 27.2698H15.5055C15.3322 27.2698 15.1786 27.1582 15.1251 26.9934L14.7646 25.8834C14.6448 25.5147 14.1232 25.5148 14.0036 25.8836L13.6439 26.9932C13.5904 27.1581 13.4368 27.2698 13.2634 27.2698H12.0917C11.7043 27.2698 11.5431 27.7656 11.8565 27.9934L12.803 28.6813C12.9431 28.7832 13.0017 28.9637 12.9482 29.1285L12.5872 30.24C12.4675 30.6085 12.8894 30.915 13.2028 30.6871L14.1486 29.9997C14.2888 29.8978 14.4787 29.8978 14.6189 29.9997L15.5656 30.6878C15.879 30.9156 16.3008 30.6094 16.1813 30.2409L15.8207 29.1284ZM15.8207 51.2283C15.7673 51.0636 15.8259 50.8832 15.966 50.7814L16.9126 50.0933C17.226 49.8655 17.0649 49.3697 16.6774 49.3697H15.5055C15.3322 49.3697 15.1786 49.2581 15.1251 49.0933L14.7646 47.9833C14.6448 47.6146 14.1232 47.6147 14.0036 47.9835L13.6439 49.0931C13.5904 49.258 13.4368 49.3697 13.2634 49.3697H12.0917C11.7042 49.3697 11.5431 49.8655 11.8565 50.0933L12.803 50.7813C12.9431 50.8831 13.0017 51.0636 12.9482 51.2284L12.5869 52.3409C12.4672 52.7093 12.8889 53.0157 13.2024 52.7881L14.1487 52.1009C14.2889 51.9991 14.4786 51.9991 14.6188 52.1009L15.5661 52.7888C15.8795 53.0164 16.3011 52.7102 16.1816 52.3418L15.8207 51.2283ZM24.0922 20.8716C24.0387 20.7068 24.0973 20.5263 24.2374 20.4244L25.1839 19.7365C25.4973 19.5087 25.3361 19.0129 24.9487 19.0129H23.7784C23.6051 19.0129 23.4515 18.9013 23.398 18.7365L23.0371 17.6253C22.9174 17.2568 22.3959 17.2568 22.2762 17.6253L21.9153 18.7365C21.8618 18.9013 21.7082 19.0129 21.5349 19.0129H20.3646C19.9771 19.0129 19.816 19.5087 20.1294 19.7365L21.0759 20.4244C21.216 20.5263 21.2746 20.7068 21.2211 20.8716L20.8601 21.9831C20.7404 22.3517 21.1623 22.6581 21.4757 22.4302L22.4215 21.7428C22.5617 21.6409 22.7516 21.6409 22.8918 21.7428L23.8376 22.4302C24.151 22.658 24.5729 22.3516 24.4532 21.9831L24.0922 20.8716ZM24.0922 59.5061C24.0387 59.3413 24.0973 59.1608 24.2374 59.059L25.1839 58.371C25.4973 58.1432 25.3362 57.6474 24.9487 57.6474H23.7784C23.6051 57.6474 23.4515 57.5358 23.398 57.371L23.0371 56.2598C22.9174 55.8913 22.3959 55.8913 22.2762 56.2598L21.9153 57.371C21.8618 57.5358 21.7082 57.6474 21.5349 57.6474H20.3646C19.9771 57.6474 19.816 58.1432 20.1294 58.371L21.0759 59.059C21.216 59.1608 21.2746 59.3413 21.2211 59.5061L20.8595 60.6195C20.7398 60.9879 21.1613 61.2943 21.4748 61.0669L22.4218 60.3799C22.5619 60.2783 22.7514 60.2783 22.8915 60.3799L23.8385 61.0668C24.152 61.2943 24.5735 60.9879 24.4538 60.6195L24.0922 59.5061ZM54.4807 40.1152C54.5341 39.9505 54.4754 39.7701 54.3354 39.6683L53.3887 38.9802C53.0754 38.7524 53.2365 38.2567 53.6239 38.2567H54.7958C54.9691 38.2567 55.1227 38.145 55.1763 37.9802L55.5375 36.8679C55.6572 36.4995 56.1785 36.4993 56.2983 36.8677L56.6604 37.9804C56.714 38.1452 56.8676 38.2567 57.0408 38.2567H58.2097C58.5971 38.2567 58.7583 38.7524 58.4449 38.9802L57.4984 39.6682C57.3582 39.77 57.2996 39.9505 57.3531 40.1153L57.7141 41.2268C57.8339 41.5954 57.412 41.9018 57.0985 41.6739L56.1528 40.9865C56.0126 40.8846 55.8227 40.8846 55.6824 40.9865L54.7357 41.6746C54.4224 41.9024 54.0006 41.5962 54.12 41.2277L54.4807 40.1152ZM51.6421 29.1284C51.6955 28.9636 51.6368 28.7833 51.4968 28.6814L50.5502 27.9934C50.2368 27.7656 50.3979 27.2698 50.7853 27.2698H51.9572C52.1305 27.2698 52.2841 27.1582 52.3377 26.9934L52.6986 25.8822C52.8183 25.5137 53.3397 25.5137 53.4594 25.8822L53.8203 26.9934C53.8739 27.1582 54.0275 27.2698 54.2008 27.2698H55.371C55.7585 27.2698 55.9196 27.7656 55.6062 27.9934L54.6598 28.6813C54.5196 28.7832 54.461 28.9637 54.5145 29.1285L54.8755 30.24C54.9952 30.6085 54.5734 30.915 54.2599 30.6871L53.3142 29.9997C53.174 29.8978 52.984 29.8978 52.8438 29.9997L51.8971 30.6878C51.5837 30.9156 51.162 30.6094 51.2814 30.2409L51.6421 29.1284ZM51.6421 51.2283C51.6955 51.0636 51.6368 50.8832 51.4968 50.7814L50.5501 50.0933C50.2367 49.8655 50.3979 49.3697 50.7853 49.3697H51.9572C52.1305 49.3697 52.2841 49.2581 52.3377 49.0933L52.6986 47.9821C52.8183 47.6136 53.3397 47.6136 53.4594 47.9821L53.8203 49.0933C53.8739 49.2581 54.0275 49.3697 54.2008 49.3697H55.3711C55.7585 49.3697 55.9196 49.8655 55.6062 50.0933L54.6598 50.7813C54.5196 50.8831 54.461 51.0636 54.5145 51.2284L54.8758 52.3409C54.9955 52.7093 54.5739 53.0157 54.2604 52.7881L53.314 52.1009C53.1739 51.9991 52.9841 51.9991 52.844 52.1009L51.8966 52.7888C51.5833 53.0164 51.1617 52.7102 51.2811 52.3418L51.6421 51.2283ZM43.3706 20.8716C43.4241 20.7068 43.3655 20.5263 43.2253 20.4244L42.2789 19.7365C41.9655 19.5087 42.1266 19.0129 42.514 19.0129H43.6843C43.8576 19.0129 44.0112 18.9013 44.0648 18.7365L44.4257 17.6253C44.5454 17.2568 45.0668 17.2568 45.1866 17.6254L45.5474 18.7365C45.601 18.9013 45.7546 19.0129 45.9279 19.0129H47.0982C47.4856 19.0129 47.6468 19.5087 47.3334 19.7365L46.3869 20.4244C46.2468 20.5263 46.1881 20.7068 46.2416 20.8716L46.6027 21.9831C46.7224 22.3516 46.3005 22.658 45.987 22.4302L45.0413 21.7428C44.9011 21.6409 44.7112 21.6409 44.5709 21.7428L43.6252 22.4302C43.3117 22.6581 42.8898 22.3517 43.0096 21.9831L43.3706 20.8716ZM43.3706 59.5061C43.4241 59.3413 43.3655 59.1608 43.2253 59.059L42.2789 58.371C41.9655 58.1432 42.1266 57.6474 42.514 57.6474H43.6843C43.8576 57.6474 44.0112 57.5358 44.0648 57.371L44.4257 56.2598C44.5454 55.8913 45.0668 55.8913 45.1866 56.2598L45.5474 57.371C45.601 57.5358 45.7546 57.6474 45.9279 57.6474H47.0982C47.4856 57.6474 47.6468 58.1432 47.3334 58.371L46.3869 59.059C46.2468 59.1608 46.1881 59.3413 46.2416 59.5061L46.6033 60.6195C46.7229 60.9879 46.3015 61.2943 45.988 61.0668L45.041 60.3799C44.9009 60.2783 44.7113 60.2783 44.5712 60.3799L43.6242 61.0669C43.3107 61.2943 42.8893 60.9879 43.0089 60.6195L43.3706 59.5061Z" fill="#1E1E1E"/>
</g>
<defs>
<clipPath id="clip0_963_1077">
<rect width="68" height="78" fill="white"/>
</clipPath>
</defs>
</svg>
