<svg width="78" height="78" viewBox="0 0 78 78" fill="none" xmlns="http://www.w3.org/2000/svg">
<path d="M39.0337 76.7346C59.7844 76.7346 76.6061 59.9129 76.6061 39.1622C76.6061 18.4116 59.7844 1.58984 39.0337 1.58984C18.2831 1.58984 1.46136 18.4116 1.46136 39.1622C1.46136 59.9129 18.2831 76.7346 39.0337 76.7346Z" fill="#E4F8E5" stroke="black"/>
<path d="M55.6538 49.4428C53.6514 47.7911 51.6301 46.1605 49.646 44.487C47.252 42.4679 44.8904 40.4091 42.513 38.3703C40.6275 36.7533 38.7636 35.1123 36.8956 33.4753C36.3467 32.9943 35.798 32.5133 35.2491 32.0322C35.0376 31.8469 34.98 31.8436 34.9758 31.5784C34.9541 30.2161 34.9323 28.8537 34.9106 27.4914C34.864 24.5709 34.7921 21.6494 34.771 18.7287C34.7671 18.1762 34.3194 17.7306 33.7669 17.7413C32.5064 17.7659 31.2456 17.7933 29.9851 17.7849C27.4591 17.768 24.9332 17.7511 22.4071 17.7341C21.8222 17.7303 21.2042 17.7864 20.615 17.718C20.3901 17.6919 20.2131 17.9032 20.1952 18.1288C20.1747 18.3848 20.1592 18.4999 20.2476 18.7538C20.3848 19.1483 20.5635 19.5054 20.656 19.9204C20.7344 20.272 20.6944 20.6998 20.6097 21.0483C20.522 21.409 20.2944 21.6859 20.344 22.0723C20.3989 22.4995 20.5697 22.749 20.2875 23.1348C20.0637 23.4403 19.8148 23.7637 19.6579 24.1093C19.3401 24.8104 19.2571 25.6824 19.7771 26.2948C20.0135 26.5731 20.281 26.8683 20.541 27.1243C20.7652 27.345 21.0921 27.5234 21.2278 27.8203C21.3111 28.0022 21.3355 28.2408 21.3847 28.4333C21.4373 28.6387 21.562 28.9144 21.5623 29.1278C21.5629 29.4466 21.2856 29.754 21.2947 30.0833C21.3066 30.5107 21.5422 30.9925 21.6382 31.4099C21.7127 31.7339 21.6162 31.9607 21.8121 32.2698C22.2155 32.9071 22.779 33.4907 23.2565 34.0712C23.6542 34.5546 24.5448 35.3538 24.331 36.0373C24.2858 36.1822 24.1746 36.3465 24.2566 36.5037C24.3816 36.7433 24.4501 36.476 24.5971 36.4508C24.7995 36.4162 24.8651 36.6226 24.9789 36.7375C25.1219 36.8819 25.3065 36.9857 25.4533 37.1263C25.5611 37.2294 25.661 37.411 25.8474 37.3726C26.0282 37.3352 26.0135 37.0697 26.0262 36.8784C26.046 36.5795 25.9607 35.9498 26.4047 35.9746C26.7425 35.9935 26.9605 36.4588 27.319 36.2276C27.4879 36.1188 27.5901 35.9849 27.8359 36.0591C28.023 36.1156 28.1107 36.2824 28.3448 36.3073C28.5023 36.3239 28.7381 36.1956 28.8858 36.2626C29.1263 36.3717 29.0058 36.6136 28.84 36.7058C28.633 36.8209 28.4789 36.8385 28.3116 36.7209C28.0919 36.5666 28.0056 36.5002 27.7132 36.5575C27.4648 36.6062 27.402 36.6318 27.1497 36.565C27.0041 36.5266 26.735 36.4325 26.6004 36.5717C26.4348 36.7429 26.6049 37.3409 26.6985 37.5021C26.9183 37.881 27.4092 37.9811 27.3166 38.5373C27.2735 38.7964 27.1729 38.7756 26.9447 38.6947C26.7668 38.6314 26.59 38.5673 26.5675 38.3527C26.5511 38.1957 26.7257 38.0477 26.6206 37.8864C26.5694 37.8076 26.198 37.6559 26.0863 37.7088C25.833 37.8287 26.0479 38.7617 26.0816 38.9923C26.1413 39.4004 26.2489 39.7907 26.2969 40.1914C26.3265 40.4374 26.4665 40.5926 26.6346 40.764C26.763 40.8949 26.8458 41.0525 26.9896 41.1699C27.1461 41.2977 27.356 41.4225 27.5442 41.4501C27.7532 41.4808 28.081 41.5001 28.253 41.6367C28.4051 41.7576 28.4353 42.0056 28.4988 42.1826C28.6186 42.517 28.7512 42.7985 28.5175 43.1286C28.4188 43.2681 28.2663 43.3322 28.1423 43.4392C27.9255 43.6262 27.9761 43.7274 28.0464 44.0081C28.147 44.4095 28.1938 44.6414 28.5274 44.9016C29.1298 45.3713 29.477 46.0485 29.9906 46.6082C30.1194 46.7485 30.3229 46.8235 30.4385 46.9554C30.5867 47.1242 30.5681 47.4233 30.7319 47.5926C30.841 47.7052 31.0234 47.774 31.1518 47.8683C31.3717 48.0304 31.5021 48.2012 31.6759 48.3966C31.8314 48.5714 31.7384 48.4356 31.8895 48.4948C31.9562 48.5209 32.0614 48.5211 32.1315 48.5794C32.2847 48.7068 32.3066 48.8875 32.1993 49.0749C32.098 49.2514 32.0133 49.3507 32.1189 49.5802C32.2394 49.8426 32.4144 49.7073 32.603 49.8175C32.7644 49.9117 32.8877 50.1077 32.9486 50.2808C33.0374 50.5334 32.9107 50.6213 32.9271 50.8531C32.9417 51.061 33.0712 51.254 33.0872 51.4647C33.1026 51.6695 33.0701 51.8814 33.0814 52.0889C33.1036 52.5043 33.0017 53.135 33.5631 53.1923C33.7449 53.2109 33.9568 53.1902 34.1284 53.1426C34.2534 53.1079 34.3389 53.0441 34.4719 53.0525C34.5824 53.0596 34.7411 53.1437 34.8558 53.171C35.2045 53.2539 35.553 53.354 35.9034 53.4283C36.1649 53.484 36.2256 53.4088 36.4753 53.3823C36.683 53.3602 36.9637 53.3986 37.1697 53.4329C37.7309 53.5267 37.9544 53.9664 38.3562 54.3065C38.6375 54.5446 38.9948 54.7276 39.3483 54.8213C39.7736 54.9341 40.1061 54.8957 40.5092 54.8886C40.6766 54.8856 40.8464 54.7649 41.0063 54.7699C41.2417 54.7771 41.4055 54.9756 41.472 55.1693C41.5859 55.5017 41.6262 55.9604 41.8458 56.2491C41.9794 56.4248 42.1421 56.4401 42.2905 56.3017C42.5349 56.074 42.6027 55.9536 42.9278 56.2059C43.1009 56.3403 43.1904 56.5486 43.3358 56.7091C43.4837 56.8722 43.6766 57.0206 43.8446 57.1625C44.0951 57.3738 44.3718 57.5536 44.632 57.753C45.2269 58.2086 46.0592 58.726 46.2388 59.5042C46.2803 59.6841 46.2799 59.8705 46.214 60.0543C46.1458 60.2446 46.0215 60.3529 46.0246 60.5602C46.027 60.7135 46.0908 60.9969 46.2276 61.0947C46.4192 61.2316 46.5232 61.1067 46.6363 61.3583C46.8086 61.7421 46.6711 61.7882 47.0796 61.7193C47.5185 61.645 47.9574 61.5706 48.3963 61.4964C50.0297 61.2199 51.6591 60.9311 53.3002 60.706C54.1142 60.5945 54.9157 60.5156 55.7049 60.2891C55.8223 60.2554 56.1909 60.2155 56.2806 60.1239C56.3201 60.0836 56.2893 59.99 56.3233 59.9465C56.382 59.8714 56.481 59.851 56.5772 59.8029C56.763 59.7103 56.9633 59.6148 56.8952 59.3648C56.8335 59.1379 56.6085 59.1017 56.421 59.0154C56.1945 58.9113 55.9855 58.8082 56.0091 58.5315C56.031 58.2749 56.167 58.1011 56.0173 57.8481C55.8955 57.6423 55.715 57.5381 55.8761 57.2832C55.9902 57.1023 56.2354 57.0309 56.3691 56.8669C56.5573 56.6357 56.6009 56.1979 56.5699 55.9008C56.5322 55.5432 56.2325 55.0948 56.2971 54.7529C56.3793 54.3187 56.7161 53.9694 56.9833 53.6432C57.1647 53.4218 57.6008 53.1955 57.6836 52.9343C57.7997 52.5679 57.1798 52.4381 56.9721 52.2429C56.674 51.9626 56.7202 51.603 56.4987 51.2893C56.2963 51.0029 56.0042 50.7894 55.8205 50.4801C55.6178 50.1387 55.6516 49.8185 55.6538 49.4428ZM55.6538 49.4428C55.6538 49.4427 55.6538 49.4427 55.6538 49.4428Z" stroke="#1A1A1A" stroke-miterlimit="10"/>
<path d="M55.2083 44.61V43.248C55.2083 40.994 55.8893 39.1621 59.2942 39.1621C62.6991 39.1621 63.38 40.994 63.38 43.248V44.61" stroke="#292D32" stroke-linecap="round" stroke-linejoin="round"/>
<path d="M62.6982 52.784H55.8883C53.1645 52.784 52.4835 52.103 52.4835 49.3791V48.0171C52.4835 45.2932 53.1645 44.6123 55.8883 44.6123H62.6982C65.422 44.6123 66.103 45.2932 66.103 48.0171V49.3791C66.103 52.103 65.422 52.784 62.6982 52.784Z" fill="#E4F8E5" stroke="#292D32" stroke-linecap="round" stroke-linejoin="round"/>
<path d="M59.296 50.398C60.2363 50.398 60.9984 49.6358 60.9984 48.6956C60.9984 47.7553 60.2363 46.9932 59.296 46.9932C58.3558 46.9932 57.5935 47.7553 57.5935 48.6956C57.5935 49.6358 58.3558 50.398 59.296 50.398Z" stroke="#292D32" stroke-linecap="round" stroke-linejoin="round"/>
</svg>
