<svg width="77" height="78" viewBox="0 0 77 78" fill="none" xmlns="http://www.w3.org/2000/svg">
<g clip-path="url(#clip0_963_1117)">
<path d="M71.9052 1.31152H4.80326C2.61814 1.31152 0.846741 3.08292 0.846741 5.26804V72.37C0.846741 74.5551 2.61814 76.3265 4.80326 76.3265H71.9052C74.0903 76.3265 75.8617 74.5551 75.8617 72.37V5.26804C75.8617 3.08292 74.0903 1.31152 71.9052 1.31152Z" fill="#F9ECFF" stroke="black"/>
<path d="M40.0162 13.6221C39.9558 13.4359 40.022 13.2318 40.1804 13.1166L41.2503 12.339C41.6046 12.0815 41.4225 11.521 40.9845 11.521H39.663C39.4672 11.521 39.2937 11.3951 39.2331 11.209L38.8227 9.95068C38.687 9.53429 38.0978 9.5348 37.9627 9.95141L37.5553 11.2083C37.4948 11.3947 37.3212 11.521 37.1252 11.521H35.8042C35.3662 11.521 35.1841 12.0815 35.5384 12.339L36.608 13.1164C36.7666 13.2317 36.8328 13.436 36.772 13.6224L36.3631 14.8766C36.2273 15.2933 36.7043 15.6402 37.0588 15.3825L38.1258 14.6069C38.2843 14.4917 38.499 14.4917 38.6575 14.6068L39.7288 15.3849C40.0832 15.6423 40.5599 15.296 40.4246 14.8794L40.0162 13.6221ZM40.0162 63.8653C39.9558 63.6792 40.022 63.4751 40.1804 63.3599L41.2503 62.5822C41.6046 62.3247 41.4225 61.7643 40.9845 61.7643H39.663C39.4672 61.7643 39.2937 61.6384 39.2331 61.4523L38.8227 60.1939C38.687 59.7776 38.0978 59.778 37.9627 60.1947L37.5553 61.4515C37.4948 61.638 37.3212 61.7643 37.1252 61.7643H35.8042C35.3662 61.7643 35.1841 62.3247 35.5384 62.5822L36.608 63.3597C36.7666 63.475 36.8328 63.6793 36.772 63.8657L36.3631 65.1198C36.2273 65.5366 36.7043 65.8834 37.0588 65.6258L38.1258 64.8502C38.2843 64.735 38.499 64.7349 38.6575 64.8501L39.7288 65.6281C40.0832 65.8855 40.5599 65.5392 40.4246 65.1226L40.0162 63.8653ZM14.8962 38.7418C14.8358 38.5556 14.902 38.3517 15.0604 38.2366L16.1305 37.4588C16.4848 37.2013 16.3027 36.6409 15.8646 36.6409H14.5399C14.344 36.6409 14.1703 36.5147 14.1098 36.3284L13.7014 35.071C13.5661 34.6545 12.9769 34.6543 12.8414 35.0708L12.432 36.3286C12.3715 36.5148 12.1979 36.6409 12.0021 36.6409H10.6808C10.2428 36.6409 10.0606 37.2013 10.4149 37.4588L11.4849 38.2365C11.6432 38.3517 11.7096 38.5557 11.649 38.742L11.2409 39.9985C11.1056 40.415 11.5825 40.7614 11.9368 40.5039L13.006 39.7268C13.1645 39.6115 13.3791 39.6115 13.5376 39.7268L14.6078 40.5047C14.9621 40.7622 15.4389 40.4161 15.3038 39.9995L14.8962 38.7418ZM18.105 26.3219C18.0447 26.1357 18.1109 25.9318 18.2693 25.8167L19.3393 25.0389C19.6936 24.7813 19.5115 24.221 19.0735 24.221H17.7487C17.5528 24.221 17.3792 24.0948 17.3187 23.9085L16.9112 22.6536C16.7757 22.2369 16.1861 22.2371 16.0509 22.6539L15.6443 23.9082C15.5839 24.0947 15.4102 24.221 15.2142 24.221H13.8896C13.4517 24.221 13.2695 24.7813 13.6238 25.0389L14.6937 25.8166C14.8521 25.9318 14.9184 26.1357 14.8579 26.322L14.4498 27.5785C14.3145 27.9952 14.7914 28.3415 15.1457 28.084L16.2148 27.3069C16.3733 27.1917 16.588 27.1917 16.7465 27.3069L17.8168 28.0848C18.1709 28.3422 18.6477 27.9962 18.5127 27.5796L18.105 26.3219ZM18.105 51.3044C18.0447 51.1182 18.1109 50.9143 18.2693 50.7992L19.3393 50.0215C19.6936 49.7638 19.5115 49.2035 19.0735 49.2035H17.7487C17.5528 49.2035 17.3792 49.0773 17.3187 48.891L16.9112 47.6361C16.7757 47.2194 16.1861 47.2196 16.0509 47.6364L15.6443 48.8907C15.5839 49.0772 15.4102 49.2035 15.2142 49.2035H13.8896C13.4517 49.2035 13.2695 49.7638 13.6238 50.0215L14.6937 50.7991C14.8521 50.9143 14.9184 51.1183 14.8579 51.3045L14.4494 52.5621C14.3141 52.9787 14.7908 53.3251 15.1452 53.0678L16.2149 52.2909C16.3734 52.1759 16.5879 52.1759 16.7464 52.2909L17.8172 53.0686C18.1715 53.3257 18.6481 52.9797 18.5131 52.5631L18.105 51.3044ZM27.4554 16.9881C27.3949 16.8018 27.4612 16.5979 27.6196 16.4827L28.6895 15.705C29.0438 15.4475 28.8617 14.8871 28.4236 14.8871H27.1007C26.9048 14.8871 26.7311 14.7609 26.6707 14.5745L26.2627 13.3185C26.1274 12.9018 25.5379 12.9018 25.4025 13.3185L24.9946 14.5747C24.9341 14.7609 24.7605 14.8871 24.5646 14.8871H23.2416C22.8036 14.8871 22.6215 15.4475 22.9757 15.705L24.0457 16.4827C24.2041 16.5979 24.2703 16.8018 24.2098 16.9881L23.8017 18.2447C23.6664 18.6613 24.1434 19.0077 24.4976 18.7501L25.5668 17.973C25.7253 17.8578 25.94 17.8578 26.0984 17.973L27.1676 18.7501C27.5219 19.0077 27.9988 18.6613 27.8635 18.2446L27.4554 16.9881ZM27.4554 60.6619C27.3949 60.4757 27.4612 60.2717 27.6196 60.1565L28.6895 59.3788C29.0438 59.1212 28.8617 58.5609 28.4236 58.5609H27.1007C26.9048 58.5609 26.7311 58.4347 26.6707 58.2483L26.2627 56.9923C26.1274 56.5756 25.5379 56.5756 25.4025 56.9923L24.9946 58.2483C24.9341 58.4347 24.7605 58.5609 24.5646 58.5609H23.2416C22.8036 58.5609 22.6215 59.1212 22.9757 59.3788L24.0457 60.1565C24.2041 60.2717 24.2703 60.4757 24.2098 60.6619L23.8011 61.9207C23.6657 62.337 24.1422 62.6834 24.4966 62.4263L25.5671 61.6498C25.7255 61.5348 25.9397 61.5348 26.0981 61.6498L27.1686 62.4263C27.523 62.6834 27.9995 62.337 27.8642 61.9205L27.4554 60.6619ZM61.8076 38.7418C61.868 38.5556 61.8016 38.3517 61.6434 38.2366L60.5733 37.4588C60.219 37.2013 60.4011 36.6409 60.8391 36.6409H62.1638C62.3597 36.6409 62.5334 36.5147 62.594 36.3284L63.0023 35.071C63.1376 34.6545 63.7269 34.6543 63.8624 35.0708L64.2716 36.3286C64.3324 36.5148 64.5059 36.6409 64.7017 36.6409H66.023C66.461 36.6409 66.6432 37.2013 66.2889 37.4588L65.2189 38.2365C65.0606 38.3517 64.9942 38.5557 65.0547 38.742L65.4629 39.9985C65.5982 40.415 65.1213 40.7614 64.7669 40.5039L63.6978 39.7268C63.5393 39.6115 63.3247 39.6115 63.1661 39.7268L62.0959 40.5047C61.7417 40.7622 61.2649 40.4161 61.3999 39.9995L61.8076 38.7418ZM58.5988 26.3219C58.6591 26.1357 58.5928 25.9318 58.4345 25.8167L57.3645 25.0389C57.0102 24.7813 57.1923 24.221 57.6303 24.221H58.955C59.1509 24.221 59.3245 24.0948 59.3851 23.9085L59.7931 22.6524C59.9284 22.2357 60.5178 22.2357 60.6531 22.6524L61.0612 23.9085C61.1217 24.0948 61.2953 24.221 61.4912 24.221H62.8142C63.2521 24.221 63.4342 24.7813 63.0799 25.0389L62.0101 25.8166C61.8516 25.9318 61.7854 26.1357 61.8458 26.322L62.254 27.5785C62.3894 27.9952 61.9124 28.3415 61.558 28.084L60.489 27.3069C60.3305 27.1917 60.1157 27.1917 59.9572 27.3069L58.887 28.0848C58.5329 28.3422 58.0561 27.9962 58.191 27.5796L58.5988 26.3219ZM58.5988 51.3044C58.6591 51.1182 58.5928 50.9143 58.4345 50.7992L57.3645 50.0215C57.0102 49.7638 57.1923 49.2035 57.6302 49.2035H58.955C59.1509 49.2035 59.3245 49.0773 59.3851 48.891L59.7931 47.6349C59.9284 47.2182 60.5178 47.2182 60.6531 47.6349L61.0612 48.891C61.1217 49.0773 61.2953 49.2035 61.4912 49.2035H62.8142C63.2521 49.2035 63.4343 49.7638 63.0801 50.0215L62.0101 50.7991C61.8516 50.9143 61.7854 51.1183 61.8458 51.3045L62.2544 52.5621C62.3896 52.9787 61.913 53.3251 61.5586 53.0678L60.4888 52.2909C60.3304 52.1759 60.1158 52.1759 59.9575 52.2909L58.8866 53.0686C58.5323 53.3257 58.0557 52.9797 58.1907 52.5631L58.5988 51.3044ZM49.2484 16.9881C49.3089 16.8018 49.2426 16.5979 49.0841 16.4827L48.0143 15.705C47.66 15.4475 47.8421 14.8871 48.2802 14.8871H49.6031C49.799 14.8871 49.9727 14.7609 50.0331 14.5747L50.4411 13.3185C50.5764 12.9018 51.1658 12.9018 51.3013 13.3185L51.7092 14.5745C51.7697 14.7609 51.9433 14.8871 52.1393 14.8871H53.4622C53.9001 14.8871 54.0824 15.4475 53.7281 15.705L52.6581 16.4827C52.4997 16.5979 52.4334 16.8018 52.494 16.9881L52.9021 18.2446C53.0374 18.6613 52.5605 19.0077 52.2062 18.7501L51.137 17.973C50.9785 17.8578 50.7639 17.8578 50.6053 17.973L49.5362 18.7501C49.1818 19.0077 48.705 18.6613 48.8403 18.2446L49.2484 16.9881ZM49.2484 60.6619C49.3089 60.4757 49.2426 60.2717 49.0841 60.1565L48.0143 59.3788C47.66 59.1212 47.8421 58.5609 48.2801 58.5609H49.6031C49.799 58.5609 49.9727 58.4347 50.0331 58.2483L50.4411 56.9923C50.5764 56.5756 51.1658 56.5756 51.3013 56.9923L51.7092 58.2483C51.7697 58.4347 51.9433 58.5609 52.1393 58.5609H53.4622C53.9001 58.5609 54.0824 59.1212 53.7281 59.3788L52.6581 60.1565C52.4997 60.2717 52.4334 60.4757 52.494 60.6619L52.9027 61.9205C53.0379 62.337 52.5616 62.6834 52.2072 62.4263L51.1367 61.6498C50.9783 61.5348 50.7641 61.5348 50.6057 61.6498L49.5352 62.4263C49.1807 62.6834 48.7043 62.337 48.8396 61.9207L49.2484 60.6619Z" fill="#1E1E1E"/>
</g>
<defs>
<clipPath id="clip0_963_1117">
<rect width="76.8696" height="78" fill="white"/>
</clipPath>
</defs>
</svg>
