<svg width="78" height="78" viewBox="0 0 78 78" fill="none" xmlns="http://www.w3.org/2000/svg">
<path d="M71.4932 2.52344H6.28147C4.1579 2.52344 2.4364 4.24493 2.4364 6.36851V71.5802C2.4364 73.7038 4.1579 75.4253 6.28147 75.4253H71.4932C73.6168 75.4253 75.3383 73.7038 75.3383 71.5802V6.36851C75.3383 4.24493 73.6168 2.52344 71.4932 2.52344Z" fill="#FAFAFA" stroke="black"/>
<path d="M66.6182 7.39844H11.1565C9.0329 7.39844 7.3114 9.11993 7.3114 11.2435V66.7052C7.3114 68.8288 9.0329 70.5503 11.1565 70.5503H66.6182C68.7418 70.5503 70.4633 68.8288 70.4633 66.7052V11.2435C70.4633 9.11993 68.7418 7.39844 66.6182 7.39844Z" fill="#FAFAFA" stroke="black"/>
<path d="M36.1693 4.25045L4.16407 36.2557C2.66247 37.7573 2.66247 40.1919 4.16407 41.6935L36.1693 73.6988C37.6709 75.2004 40.1055 75.2004 41.6071 73.6988L73.6124 41.6935C75.114 40.1919 75.114 37.7573 73.6124 36.2557L41.6071 4.25045C40.1055 2.74886 37.6709 2.74886 36.1693 4.25045Z" fill="#FAFAFA" stroke="black"/>
<path d="M61.0135 13.0029H16.761C14.6374 13.0029 12.9159 14.7244 12.9159 16.848V61.1006C12.9159 63.2242 14.6374 64.9457 16.761 64.9457H61.0135C63.1371 64.9457 64.8586 63.2242 64.8586 61.1006V16.848C64.8586 14.7244 63.1371 13.0029 61.0135 13.0029Z" stroke="black"/>
<path d="M69.4674 39.5444C69.438 39.4538 69.4702 39.3546 69.5472 39.2987L70.4692 38.6286C70.6413 38.5034 70.5529 38.2311 70.34 38.2311H69.201C69.1059 38.2311 69.0216 38.1699 68.9921 38.0795L68.6386 36.9954C68.5727 36.793 68.2864 36.7933 68.2207 36.9957L67.8695 38.0792C67.8401 38.1697 67.7558 38.2311 67.6605 38.2311H66.5217C66.3089 38.2311 66.2204 38.5034 66.3925 38.6286L67.3145 39.2986C67.3915 39.3546 67.4237 39.4539 67.3941 39.5445L67.0413 40.6266C66.9753 40.829 67.2071 40.9976 67.3794 40.8723L68.3 40.2032C68.377 40.1473 68.4813 40.1473 68.5583 40.2032L69.4813 40.8735C69.6535 40.9987 69.8852 40.8304 69.8194 40.6279L69.4674 39.5444Z" fill="#1E1E1E"/>
<path d="M40.1058 10.5082C40.0764 10.4177 40.1086 10.3185 40.1856 10.2626L41.1076 9.5924C41.2798 9.46727 41.1912 9.19495 40.9784 9.19495H39.8394C39.7443 9.19495 39.66 9.13377 39.6305 9.04334L39.277 7.95922C39.211 7.7569 38.9247 7.75714 38.8591 7.95958L38.5079 9.04299C38.4785 9.13359 38.3941 9.19495 38.2989 9.19495H37.1602C36.9473 9.19495 36.8588 9.46727 37.031 9.5924L37.9528 10.2625C38.0298 10.3185 38.062 10.4177 38.0326 10.5083L37.6797 11.5904C37.6137 11.7929 37.8455 11.9614 38.0177 11.8363L38.9384 11.1671C39.0154 11.1111 39.1196 11.1111 39.1966 11.167L40.1197 11.8374C40.2918 11.9625 40.5235 11.7942 40.4578 11.5917L40.1058 10.5082Z" fill="#1E1E1E"/>
<path d="M10.3666 39.351C10.3372 39.2605 10.3694 39.1614 10.4464 39.1053L11.3685 38.4352C11.5406 38.3101 11.4521 38.0377 11.2393 38.0377H10.1002C10.0051 38.0377 9.92078 37.9765 9.8913 37.8861L9.53782 36.802C9.47186 36.5997 9.18554 36.5999 9.11991 36.8024L8.76871 37.8858C8.73934 37.9764 8.65494 38.0377 8.5597 38.0377H7.42095C7.20812 38.0377 7.11961 38.3101 7.29176 38.4352L8.21362 39.1052C8.29066 39.1613 8.32285 39.2606 8.29332 39.3511L7.94051 40.4332C7.87448 40.6357 8.10631 40.8043 8.27859 40.6791L9.19919 40.0099C9.27619 39.9539 9.38048 39.9539 9.45749 40.0098L10.3805 40.6803C10.5527 40.8053 10.7843 40.637 10.7186 40.4345L10.3666 39.351Z" fill="#1E1E1E"/>
<path d="M40.1058 68.9056C40.0764 68.8151 40.1086 68.716 40.1856 68.6601L41.1076 67.9898C41.2798 67.8647 41.1912 67.5925 40.9784 67.5925H39.8394C39.7443 67.5925 39.66 67.5313 39.6305 67.4408L39.277 66.3566C39.211 66.1544 38.9247 66.1546 38.8591 66.357L38.5079 67.4404C38.4785 67.531 38.3941 67.5925 38.2989 67.5925H37.1602C36.9473 67.5925 36.8588 67.8647 37.031 67.9898L37.9528 68.66C38.0298 68.716 38.062 68.8152 38.0326 68.9057L37.6797 69.9878C37.6137 70.1904 37.8455 70.3589 38.0177 70.2337L38.9384 69.5645C39.0154 69.5086 39.1196 69.5085 39.1966 69.5645L40.1197 70.2349C40.2918 70.3599 40.5235 70.1916 40.4578 69.9892L40.1058 68.9056Z" fill="#1E1E1E"/>
</svg>
