<svg width="144" height="33" viewBox="0 0 144 33" fill="none" xmlns="http://www.w3.org/2000/svg">
<path d="M1.69955 6.20294H5.94844V13.3751H16.5537V6.20294H20.8025V25H16.5537V17.1821H5.94844V25H1.69955V6.20294ZM24.2054 6.20294H41.2689V10.0439H28.4542V13.511H39.9772V17.352H28.4542V21.091H41.7448V25H24.2054V6.20294ZM44.2388 6.20294H49.0996L55.116 16.2303H55.3879L61.2004 6.20294H66.0611L57.2234 20.3092V25H53.0425V20.3092L44.2388 6.20294Z" fill="#333333"/>
<circle cx="70.528" cy="16.5" r="2.52804" fill="#386FDE"/>
<path d="M87.8367 14.0889H96.7084V25H94.0571L93.4793 23.5384C91.6777 24.7961 89.7402 25.4759 86.919 25.4759C81.0045 25.4759 76.4157 21.7029 76.4157 15.6185C76.4157 9.53406 81.0045 5.76105 86.919 5.76105C91.2698 5.76105 94.2271 7.32464 96.3685 10.5198L93.0034 12.4233C91.5078 10.4858 89.9442 9.63603 86.851 9.63603C83.078 9.63603 80.6306 11.9134 80.6306 15.6185C80.6306 19.3235 83.078 21.6009 86.851 21.6009C89.5363 21.6009 91.0999 21.091 92.6295 19.9013V17.7599L87.8367 17.5899V14.0889ZM100.29 6.20294H117.354V10.0439H104.539V13.511H116.062V17.352H104.539V21.091H117.83V25H100.29V6.20294ZM121.004 6.20294H125.015L136.266 18.8476V6.20294H140.481V25H136.436L125.185 12.3213V25H121.004V6.20294Z" fill="#333333"/>
</svg>
