<svg width="86" height="56" viewBox="0 0 86 56" fill="none" xmlns="http://www.w3.org/2000/svg">
<g clip-path="url(#clip0_963_699)">
<mask id="mask0_963_699" style="mask-type:luminance" maskUnits="userSpaceOnUse" x="0" y="0" width="86" height="56">
<path d="M86 0H0V56H86V0Z" fill="white"/>
</mask>
<g mask="url(#mask0_963_699)">
<path d="M0.00390625 28.2402H11.6331L10.998 29.1047H0.00390625V28.2402Z" fill="#333333"/>
<path d="M0.00390625 26.6367H12.8146L12.1783 27.5H0.00390625V26.6367Z" fill="#333333"/>
<path d="M0.00390625 29.8486H10.4524L9.82003 30.7071H0.00390625V29.8486Z" fill="#333333"/>
<path d="M85.9979 29.1041H74.4141L75.0489 28.2402H85.9979V29.1041Z" fill="#333333"/>
<path d="M86.002 30.7071L73.2402 30.7083L73.8724 29.8486H86.002V30.7071Z" fill="#333333"/>
<path d="M76.2312 26.6367H85.9996V27.5006L75.5957 27.5012L76.2312 26.6367Z" fill="#333333"/>
<path d="M11.2754 30.7045L16.7939 23.207H23.6419C24.3988 23.207 24.3889 23.4944 24.019 23.9957C23.6433 24.5046 23.004 25.3797 22.6214 25.8964C22.4272 26.1589 22.076 26.637 23.2396 26.637H32.4137C31.6507 27.6822 29.176 30.7045 24.7321 30.7045H11.2754Z" fill="#333333"/>
<path d="M42.8707 26.6377L39.8784 30.7058H31.9844C31.9844 30.7058 34.9754 26.6383 34.9781 26.6383L42.8707 26.6377Z" fill="#333333"/>
<path d="M54.2893 26.6377L51.2954 30.7052H43.4043C43.4043 30.7052 46.3956 26.6377 46.3982 26.6377H54.2893Z" fill="#333333"/>
<path d="M56.856 26.6377C56.856 26.6377 56.2795 27.4263 55.9992 27.8049C55.0079 29.1446 55.884 30.7052 59.119 30.7052H71.7923L74.7856 26.6377H56.856Z" fill="#333333"/>
<path d="M15.1244 18.5469L12.377 22.2796H27.3507C28.1075 22.2796 28.0976 22.567 27.7277 23.0682C27.3521 23.5766 26.7233 24.4618 26.3407 24.9784C26.1465 25.2403 25.7953 25.7184 26.9588 25.7184H33.0821C33.0821 25.7184 34.0691 24.3753 34.8964 23.2525C36.022 21.7251 34.994 18.5469 30.9703 18.5469H15.1244Z" fill="#333333"/>
<path d="M54.9641 25.7185H35.6562L40.9361 18.5469H48.8274L45.8018 22.6588H49.3238L52.3519 18.5469H60.2421L54.9641 25.7185Z" fill="#333333"/>
<path d="M71.1682 18.5469L65.8895 25.7185H57.5273C57.5273 25.7185 62.8078 18.5469 62.8105 18.5469H71.1682Z" fill="#333333"/>
<path d="M56.5296 39.7784C55.7413 39.7784 55.1283 39.5367 54.6911 39.0534C54.2538 38.5701 54.0352 37.8998 54.0352 37.0424V36.5417C54.0352 35.9722 54.1418 35.4846 54.3545 35.0788C54.5675 34.6733 54.8668 34.3625 55.2522 34.1468C55.6376 33.931 56.0894 33.8232 56.6072 33.8232C57.0214 33.8232 57.3926 33.8937 57.7206 34.0346C58.0485 34.1757 58.3335 34.3813 58.575 34.6516L57.8157 35.4544C57.6258 35.2645 57.4329 35.1322 57.2374 35.0574C57.0416 34.9826 56.8374 34.9451 56.6244 34.9451C56.2102 34.9451 55.892 35.0848 55.6707 35.3637C55.4491 35.6429 55.3384 36.0528 55.3384 36.5937V36.9906C55.3384 37.5316 55.4406 37.9444 55.645 38.2291C55.8491 38.5139 56.1469 38.6563 56.5382 38.6563C56.8949 38.6563 57.1695 38.5386 57.3624 38.3026C57.5552 38.0666 57.6515 37.7618 57.6515 37.3876H56.5121V36.3347H58.9203V37.3359C58.9203 37.8482 58.8223 38.2868 58.6267 38.652C58.4312 39.0176 58.1548 39.2965 57.7981 39.4892C57.4415 39.6819 57.0185 39.7784 56.5296 39.7784Z" fill="#333333"/>
<path d="M59.8848 39.6506V35.2489H61.0671V36.3449C61.1302 36.1494 61.2153 35.9638 61.3216 35.7883C61.4283 35.6129 61.5663 35.4689 61.7361 35.3567C61.9055 35.2445 62.1171 35.1885 62.3704 35.1885C62.4222 35.1885 62.4696 35.19 62.5129 35.1928C62.5558 35.1958 62.6092 35.2029 62.6726 35.2143V36.3709C62.6264 36.3652 62.576 36.3609 62.5215 36.358C62.4667 36.3551 62.4136 36.3537 62.3618 36.3537C62.0454 36.3537 61.7865 36.4139 61.585 36.5348C61.3835 36.6557 61.2339 36.7852 61.1361 36.9232V39.6505L59.8848 39.6506Z" fill="#333333"/>
<path d="M65.2221 39.7533C64.5662 39.7533 64.0495 39.5634 63.673 39.1837C63.2958 38.8039 63.1074 38.2833 63.1074 37.6216V37.2763C63.1074 36.6148 63.2959 36.0939 63.673 35.7142C64.0495 35.3343 64.5662 35.1445 65.2221 35.1445C65.878 35.1445 66.3944 35.3343 66.7712 35.7142C67.148 36.094 67.3367 36.6148 67.3367 37.2763V37.6216C67.3367 38.2833 67.148 38.804 66.7712 39.1837C66.3944 39.5634 65.878 39.7533 65.2221 39.7533ZM65.2221 38.709C65.4926 38.709 65.7038 38.617 65.8564 38.4329C66.009 38.2488 66.0851 37.9697 66.0851 37.5957V37.3022C66.0851 36.9282 66.009 36.6493 65.8564 36.465C65.7038 36.2809 65.4926 36.1888 65.2221 36.1888C64.9516 36.1888 64.7401 36.2809 64.5878 36.465C64.4352 36.6493 64.3591 36.9282 64.3591 37.3022V37.5957C64.3591 37.9697 64.4352 38.2488 64.5878 38.4329C64.7401 38.617 64.9516 38.709 65.2221 38.709Z" fill="#333333"/>
<path d="M69.5508 39.7351C69.1192 39.7351 68.7882 39.5827 68.558 39.2776C68.3279 38.9726 68.2129 38.5412 68.2129 37.983V35.2471H69.4643V37.9053C69.4643 38.1414 69.5146 38.3282 69.6154 38.4664C69.7161 38.6044 69.8758 38.6734 70.0944 38.6734C70.2553 38.6734 70.3966 38.6346 70.5172 38.5569C70.6381 38.4793 70.7358 38.38 70.8108 38.2591V35.2471H72.0622V39.6487H70.8798V38.8805C70.7474 39.1338 70.5706 39.3394 70.349 39.4976C70.1273 39.6558 69.8613 39.7351 69.5508 39.7351Z" fill="#333333"/>
<path d="M73.1953 41.2889V35.2475H74.3777V36.0069C74.4986 35.7424 74.6725 35.5352 74.8997 35.3856C75.1272 35.2359 75.3873 35.1611 75.6809 35.1611C76.1756 35.1611 76.5626 35.3497 76.8417 35.7264C77.1207 36.1034 77.2603 36.6198 77.2603 37.2757V37.621C77.2603 38.2769 77.1207 38.7934 76.8417 39.1701C76.5626 39.5471 76.1757 39.7355 75.6809 39.7355C75.1112 39.7355 74.6997 39.4708 74.4467 38.9414V41.2889H73.1953ZM75.2063 36.214C74.8896 36.214 74.6366 36.3492 74.4467 36.6197V38.2854C74.6366 38.5501 74.8896 38.6824 75.2063 38.6824C75.4652 38.6824 75.6637 38.5889 75.8018 38.402C75.9398 38.215 76.0088 37.9461 76.0088 37.595V37.3015C76.0088 36.9506 75.9398 36.6816 75.8018 36.4945C75.6637 36.3076 75.4652 36.214 75.2063 36.214Z" fill="#333333"/>
</g>
</g>
<defs>
<clipPath id="clip0_963_699">
<rect width="86" height="56" fill="white"/>
</clipPath>
</defs>
</svg>
