<svg width="107" height="56" viewBox="0 0 107 56" fill="none" xmlns="http://www.w3.org/2000/svg">
<mask id="mask0_963_654" style="mask-type:luminance" maskUnits="userSpaceOnUse" x="1" y="17" width="106" height="22">
<path d="M107 17H1V39H107V17Z" fill="white"/>
</mask>
<g mask="url(#mask0_963_654)">
<path d="M11.8066 17.5474H9.73114V27.824C9.73114 31.6837 8.38519 32.8444 4.97292 32.8444C2.11248 32.8352 1 31.7216 1 30.2778C1 29.9473 1.12141 28.8811 2.16842 28.8811C3.20608 28.8811 3.27155 29.5889 3.27155 30.7402C3.27155 31.2214 3.46796 32.165 4.69251 32.165C6.63705 32.165 7.50636 31.2686 7.50636 28.0978V17.5474H5.50587V17H11.8066V17.5474ZM12.2273 30.3909C11.8815 30.3909 11.5823 30.504 11.3487 30.7495C11.1057 30.9948 10.9841 31.2873 10.9841 31.6365C10.9841 31.9856 11.1057 32.2781 11.3487 32.5047C11.5917 32.75 11.8815 32.8633 12.2273 32.8633C12.5732 32.8633 12.863 32.7502 13.1155 32.5047C13.3585 32.2781 13.4799 31.9856 13.4799 31.6365C13.4799 31.2779 13.3585 30.9948 13.1155 30.7495C12.8725 30.5042 12.5824 30.3909 12.2273 30.3909ZM25.7356 30.3909C25.3897 30.3909 25.0999 30.504 24.8569 30.7495C24.6139 30.995 24.5015 31.2873 24.5015 31.6365C24.5015 31.9856 24.6138 32.2781 24.8569 32.5047C25.1093 32.75 25.3991 32.8633 25.7356 32.8633C26.0815 32.8633 26.3806 32.7502 26.6236 32.5047C26.8666 32.2781 26.9882 31.9856 26.9882 31.6365C26.9882 31.2779 26.8666 30.9948 26.6236 30.7495C26.3806 30.5042 26.0815 30.3909 25.7356 30.3909ZM21.8186 17C26.6517 17 27.4744 18.84 27.4744 21.4636C27.4744 24.0588 26.1374 25.9555 21.3605 25.9555L19.7152 25.9649V29.881C19.7152 30.3624 19.7714 30.5984 19.8836 30.8624C20.005 31.1738 20.2669 31.4099 20.6594 31.5702C20.9398 31.674 21.37 31.7307 21.9308 31.7494V32.4479H15.2935V31.7494C15.8544 31.7307 16.2751 31.6739 16.5555 31.5513C16.9294 31.3908 17.1818 31.1549 17.2942 30.8435C17.3969 30.5699 17.453 30.5227 17.453 29.5791V17.5473H15.6394V17.0093L21.8186 17ZM20.9678 25.3612C23.8846 25.3612 25.3334 24.0873 25.3334 21.5959C25.3334 19.114 24.5294 17.5946 20.8462 17.5946L19.7059 17.6133V25.3704H20.9678M46.4513 30.8061C46.3671 30.5325 46.3204 30.1926 46.3204 29.7586V17.5474H47.9189V17H44.0206C43.9736 17.1416 39.3277 28.8056 39.3277 28.8056C39.3174 28.8244 39.3026 28.8404 39.2846 28.8519C39.2666 28.8635 39.246 28.8703 39.2248 28.8717C39.1687 28.8717 39.1312 28.8433 39.1127 28.8056C39.1127 28.8056 34.1768 17.1416 34.1208 17H29.7925V17.5378H31.5876V29.2773C31.5876 29.2773 31.5502 30.3625 31.5502 30.372C31.5221 30.6551 31.4286 30.91 31.2883 31.1175C31.1388 31.3347 30.905 31.5044 30.5965 31.6177C30.3908 31.6838 30.0825 31.7309 29.7085 31.7403V32.4386H34.1115V31.7403C33.7471 31.7216 33.5881 31.6838 33.373 31.6177C33.0551 31.5139 32.8213 31.3534 32.6625 31.127C32.5222 30.9192 32.4287 30.6645 32.4006 30.3625C32.4006 30.3625 32.3538 29.2773 32.3538 29.2679V19.1609H32.6062C32.6062 19.1609 38.1778 32.297 38.2432 32.4481H38.7105L43.9924 19.3119H44.1233V29.7585C44.1233 30.2115 44.0764 30.5701 43.9924 30.8437C43.8895 31.1646 43.6652 31.4006 43.338 31.5609C43.095 31.674 42.7304 31.7309 42.2444 31.7496V32.4481H48.2647V31.7496C47.7786 31.7214 47.4046 31.6648 47.1523 31.5515C46.7785 31.3724 46.554 31.127 46.4513 30.8061ZM54.5468 21.1335C57.5195 21.1335 59.7256 23.1812 59.7256 26.937C59.7256 31.7592 56.2856 32.9009 54.4813 32.9009C53.5653 32.9009 49.3305 32.5423 49.3305 27.0407C49.3213 23.2851 51.3405 21.1335 54.5468 21.1335ZM54.5096 32.2217C56.6691 32.2217 57.3328 30.8628 57.3328 26.9087C57.3328 24.1626 57.3232 21.8222 54.5096 21.8222C51.9107 21.8222 51.7238 24.0871 51.7238 27.1068C51.7238 31.0042 52.0882 32.2217 54.5096 32.2217ZM68.1299 21.3032C66.2136 21.3032 65.5498 22.4451 65.0167 23.6154C65.0167 23.6154 64.8764 23.6059 64.8673 23.6059C64.8579 23.6154 64.484 21.3977 64.484 21.3977H60.838V21.9828H62.8387V29.5889C62.8387 30.3437 62.8013 30.9289 62.6049 31.2497C62.3806 31.6177 61.9225 31.7594 61.1559 31.7594H60.8287V32.4577H67.064V31.7594H66.7274C65.9143 31.7594 65.4936 31.5802 65.2786 31.2214C65.0822 30.9102 64.9888 30.3722 64.9888 29.5889V25.6442C64.9888 24.3137 66.0452 22.7849 67.2417 22.7849C68.4943 22.7849 68.5317 24.5968 69.878 23.9458C70.8315 23.4926 70.6165 21.3032 68.1299 21.3032ZM92.9495 31.3156C93.3421 31.3156 93.8189 30.9004 93.9217 30.1172H94.2956C94.1927 31.9103 93.3234 32.6275 91.8744 32.6275C90.5844 32.6275 89.8739 31.7025 89.7523 30.9381C88.9952 31.7498 87.8732 32.7691 86.097 32.7691C84.4986 32.7691 83.2553 31.5233 83.1805 30.1078C82.9655 26.484 87.6864 26.0973 89.6775 25.9179V24.0682C89.6775 23.3982 89.528 22.8604 89.2382 22.4546C88.9298 22.0299 88.3781 21.8223 87.5928 21.8223C86.9198 21.8223 86.4244 21.9923 86.1066 22.3224C85.8073 22.6432 85.6765 22.9924 85.5832 23.5965C85.4522 24.4174 85.1063 24.7382 84.4894 24.7382C84.2183 24.7382 84.0032 24.6627 83.8071 24.4929C83.6201 24.3326 83.5267 24.0965 83.5267 23.7568C83.5267 23.0302 83.8071 22.5299 84.5176 21.9828C85.2468 21.4167 86.3873 21.1336 87.9297 21.1336C89.5375 21.1336 90.65 21.4356 91.2202 22.0206C91.7999 22.6056 91.9589 23.2851 91.9589 24.2759V28.8998L91.9963 30.3155C92.0708 30.9477 92.2764 31.3156 92.9495 31.3156ZM89.6868 26.5973C88.1537 26.5973 85.3679 27.6259 85.3679 29.6831C85.3679 30.3248 85.5923 31.6081 87.1254 31.6081C87.7236 31.6081 88.5368 31.259 89.6027 30.2778L89.6494 30.2304C89.6868 30.202 89.6868 30.1832 89.6868 30.1456V26.5973ZM105.682 31.2497C105.411 30.9102 105.355 30.1644 105.355 29.5983V24.5969C105.355 23.8703 105.261 23.2569 104.99 22.7473C104.719 22.2565 104.336 21.8792 103.859 21.6339C103.373 21.3886 102.821 21.2658 102.214 21.2658C100.026 21.2658 99.0727 22.5399 98.6428 23.3986H98.4744L98.0912 21.398H94.6976V21.9736H96.399V29.5892C96.399 30.1744 96.3522 30.5989 96.268 30.8822C96.1747 31.2217 95.9597 31.4483 95.6417 31.5899C95.4361 31.6747 95.1183 31.7316 94.7071 31.7503V32.4488H100.092V31.7503C99.5495 31.7031 99.1849 31.5616 98.9887 31.2786C98.7736 30.9764 98.6802 30.4669 98.6802 29.712V26.7961C98.6802 25.5787 98.6707 24.399 99.082 23.6629C99.5308 22.8704 100.344 22.4268 101.251 22.4268C102.073 22.4268 102.513 22.6911 102.775 23.2195C103.064 23.814 103.13 24.9181 103.13 25.7956V29.41C103.13 30.0139 103.111 30.448 103.074 30.7311C103.008 31.0616 102.934 31.3352 102.672 31.505C102.485 31.6372 102.195 31.7221 101.812 31.7503V32.4392H107V31.7403C106.336 31.712 105.944 31.5989 105.682 31.2497ZM81.339 20.6899C81.9279 20.5012 82.4141 20.6427 82.5729 21.3128C82.6477 21.6337 82.5824 22.0206 82.3954 22.3602C82.2178 22.6999 81.9092 22.9454 81.4232 23.0963C81.0025 23.2379 80.5537 23.2379 80.0583 23.1246C80.2922 23.6342 80.4882 24.3514 80.4882 25.1912C80.4882 28.1165 78.2728 28.9942 75.9077 29.3623C73.4959 29.7396 72.8789 30.0323 72.8789 30.7965C72.8789 31.3156 73.1967 31.6176 74.8701 31.6176C78.3289 31.7875 79.8714 31.5892 80.9559 33.0898C81.2922 33.5709 81.4606 34.2128 81.4606 35.0149C81.4606 35.6 81.3111 36.2133 80.9839 36.808C80.6755 37.4023 80.0957 37.9214 79.2637 38.3461C78.4316 38.7707 77.2725 38.9973 75.8516 38.9973C74.7765 38.9973 74.0006 38.9124 72.8228 38.5538C72.0562 38.3273 71.0466 37.7046 71.0466 36.3929C71.0466 35.9963 71.1121 35.6662 71.2896 35.3832C71.486 35.081 71.8878 34.9018 72.2244 34.9585C72.8226 35.0623 73.0002 35.6096 72.8974 36.1285C72.776 36.6382 72.8881 37.3554 73.4678 37.7138C74.2529 38.2046 75.1131 38.3177 76.1694 38.3177C77.4035 38.3177 78.3944 38.1007 79.1236 37.6949C79.9089 37.2514 80.2922 36.6567 80.2922 35.9208C80.2922 35.383 80.1051 34.9677 79.7405 34.6847C79.3946 34.4299 78.9178 34.26 78.3289 34.1846C77.7773 34.1185 76.9267 34.0715 75.7395 34.0619C74.3747 34.0337 73.2903 33.8732 72.5143 33.5524C71.8132 33.2599 71.2711 32.7408 71.2711 31.7783C71.2711 30.1835 72.748 29.6927 74.4121 29.353C74.515 29.3343 74.515 29.1927 74.3934 29.1738C72.4397 28.7585 71.5517 27.6261 71.5517 25.3047C71.5517 23.3136 72.8884 21.1338 75.9266 21.1338C77.8057 21.1338 78.8807 21.7755 79.4416 22.2946C79.6099 22.4266 79.9932 22.4172 80.2175 22.3511C80.4418 22.2755 80.6102 22.0208 80.6942 21.5679C80.8062 21.0768 81.0116 20.7937 81.339 20.6899ZM75.9824 28.7395C77.3098 28.7395 78.2634 28.3337 78.2634 25.2668C78.2634 23.1246 77.7492 21.7279 75.9824 21.7279C74.468 21.7279 73.7574 23.2568 73.7574 25.3045C73.7482 28.2204 74.5614 28.7395 75.9824 28.7395Z" fill="#333333"/>
</g>
</svg>
