<svg width="108" height="56" viewBox="0 0 108 56" fill="none" xmlns="http://www.w3.org/2000/svg">
<path fill-rule="evenodd" clip-rule="evenodd" d="M46.2124 27.6246C46.8638 27.3726 47.4226 26.9275 47.8142 26.3491C48.2057 25.7707 48.4112 25.0865 48.4032 24.3881C48.4032 21.4752 46.3368 20.0312 43.4987 20.0312H36.0547V35.8703H44.146C46.6356 35.8703 49.0754 34.1276 49.0754 31.4636C49.0754 28.2969 46.2124 27.6545 46.2124 27.6246ZM39.9385 23.3176H42.8265C43.0114 23.3061 43.1968 23.3312 43.372 23.3916C43.5472 23.4518 43.7088 23.546 43.8475 23.6688C43.9863 23.7915 44.0995 23.9405 44.1806 24.1071C44.2617 24.2737 44.3091 24.4546 44.3202 24.6395C44.3202 24.696 44.3202 24.7532 44.3202 24.8113C44.3124 25.2007 44.151 25.5712 43.8712 25.8422C43.5914 26.1131 43.2159 26.2625 42.8265 26.2578H39.9136L39.9385 23.3176ZM42.8514 32.5541H39.9634V29.442H42.7767C44.1958 29.442 44.868 30.0644 44.868 30.9856C44.868 32.1358 44.0215 32.5541 42.8514 32.5541Z" fill="#333333"/>
<path fill-rule="evenodd" clip-rule="evenodd" d="M57.6369 19.6328C53.056 19.6328 50.3672 23.2926 50.3672 27.9233C50.3672 32.554 53.056 36.2137 57.6369 36.2137C62.2178 36.2137 64.9066 32.5789 64.9066 27.9233C64.9066 23.2677 62.2427 19.6328 57.6369 19.6328ZM57.6369 32.4295C55.3962 32.4295 54.2759 30.4129 54.2759 27.9233C54.2759 25.4336 55.3962 23.4419 57.6369 23.4419C59.8776 23.4419 61.0228 25.4585 61.0228 27.9233C61.0228 30.4378 59.8776 32.4295 57.6369 32.4295Z" fill="#333333"/>
<path fill-rule="evenodd" clip-rule="evenodd" d="M73.3521 26.2567L72.8044 26.1322C71.46 25.8583 70.3895 25.5098 70.3895 24.5388C70.3895 23.4932 71.4102 23.07 72.3065 23.07C72.918 23.0791 73.521 23.2142 74.0779 23.4669C74.6348 23.7197 75.1335 24.0846 75.543 24.5388L78.0077 22.099C76.8874 20.8293 75.07 19.6094 72.2318 19.6094C68.8957 19.6094 66.3563 21.4766 66.3563 24.5886C66.3563 27.4268 68.3978 28.821 70.8874 29.3438L71.4351 29.4683C73.5015 29.8915 74.2733 30.2152 74.2733 31.211C74.2733 32.1571 73.4268 32.7795 72.1322 32.7795C70.5886 32.7795 69.1944 32.1073 68.1239 30.738L65.6094 33.2276C67.0036 34.8957 68.7712 36.1903 72.182 36.1903C75.1446 36.1903 78.3065 34.4973 78.3065 31.0368C78.3563 27.4268 75.6177 26.7297 73.3521 26.2567Z" fill="#333333"/>
<path fill-rule="evenodd" clip-rule="evenodd" d="M87.1671 32.4319C85.4244 32.4319 83.6069 30.988 83.6069 27.8261C83.6069 25.0129 85.2999 23.4444 87.0675 23.4444C88.4617 23.4444 89.2833 24.0917 89.9306 25.212L93.1173 23.0958C91.524 20.6809 89.6318 19.6602 87.0177 19.6602C82.2376 19.6602 79.6484 23.3697 79.6484 27.851C79.6484 32.5564 82.5115 36.2411 86.9679 36.2411C90.1049 36.2411 91.5986 35.1456 93.2169 32.8054L90.0053 30.6444C89.358 31.685 88.6609 32.4319 87.1671 32.4319Z" fill="#333333"/>
<path fill-rule="evenodd" clip-rule="evenodd" d="M103.744 20.0312V25.857H98.9389V20.0312H94.7812V35.8653H98.9389V29.6164H103.744V35.8653H107.902V20.0312H103.744Z" fill="#333333"/>
<path d="M12.1016 16C9.72819 16 7.40811 16.7038 5.43472 18.0224C3.46133 19.3409 1.92326 21.2151 1.01501 23.4078C0.106762 25.6005 -0.130878 28.0133 0.332144 30.3411C0.795167 32.6689 1.93806 34.807 3.61629 36.4853C5.29452 38.1635 7.43271 39.3064 9.76048 39.7694C12.0883 40.2324 14.5011 39.9948 16.6938 39.0866C18.8865 38.1783 20.7606 36.6402 22.0792 34.6668C23.3978 32.6934 24.1016 30.3734 24.1016 28C24.1016 24.8174 22.8373 21.7652 20.5868 19.5147C18.3364 17.2643 15.2842 16 12.1016 16ZM12.1016 38.8797C9.94977 38.8797 7.8463 38.2416 6.05715 37.0461C4.26799 35.8506 2.87352 34.1515 2.05006 32.1635C1.22661 30.1755 1.01115 27.9879 1.43095 25.8775C1.85074 23.767 2.88693 21.8285 4.40848 20.3069C5.93003 18.7854 7.8686 17.7492 9.97905 17.3294C12.0895 16.9096 14.277 17.125 16.265 17.9485C18.253 18.772 19.9522 20.1664 21.1477 21.9556C22.3432 23.7447 22.9812 25.8482 22.9812 28C22.9806 30.8853 21.8341 33.6522 19.7939 35.6924C17.7537 37.7325 14.9868 38.879 12.1016 38.8797Z" fill="#333333"/>
<path d="M17.0598 20.5078H16.2382V24.6157H7.99752V20.5078H7.15105C5.91124 21.3257 4.89373 22.4385 4.18972 23.7463C3.48571 25.0542 3.11719 26.5163 3.11719 28.0016C3.11719 29.4869 3.48571 30.949 4.18972 32.2568C4.89373 33.5647 5.91124 34.6774 7.15105 35.4954H7.99752V31.3925H16.2382V35.5003H17.0598C18.3001 34.6828 19.3181 33.5702 20.0225 32.2623C20.7269 30.9544 21.0957 29.4921 21.0957 28.0066C21.0957 26.521 20.7269 25.0587 20.0225 23.7508C19.3181 22.4429 18.3001 21.3303 17.0598 20.5128V20.5078ZM6.85229 33.8821C6.08017 33.196 5.45074 32.3646 4.99996 31.4353C4.54918 30.5059 4.28587 29.4969 4.22507 28.4658C4.16427 27.4347 4.30716 26.4018 4.6456 25.4259C4.98403 24.45 5.51138 23.5504 6.19752 22.7784C6.40317 22.5486 6.62179 22.3308 6.85229 22.1261V33.8821ZM16.2382 30.2472H7.99752V25.736H16.2382V30.2472ZM17.3585 33.8572V31.3676V24.6157V22.1261C18.1287 22.8177 18.7552 23.6543 19.2019 24.5881C19.6487 25.5219 19.9071 26.5346 19.9624 27.5683C20.0176 28.6021 19.8687 29.6365 19.524 30.6126C19.1793 31.5888 18.6456 32.4874 17.9535 33.2572C17.7653 33.4654 17.5667 33.664 17.3585 33.8522V33.8572Z" fill="#333333"/>
</svg>
