<svg width="90" height="56" viewBox="0 0 90 56" fill="none" xmlns="http://www.w3.org/2000/svg">
<path d="M66.1016 28.2964V34.9225H68.8128V28.7039C68.8128 25.932 72.5818 25.932 72.5818 25.932V23.2383C72.5818 23.2383 71.5298 23.2873 70.6973 23.4753C68.3387 24.0042 66.1016 25.1718 66.1016 28.3022V28.2964Z" fill="#333333"/>
<path d="M45.6412 23.0976C46.699 23.0976 48.0184 23.6931 48.7353 24.7451C49.4768 23.7912 50.7051 23.1396 52.2183 23.1163C54.139 23.0918 56.5163 24.2897 56.5163 27.8766V34.9045H53.8051V27.8766C53.8051 26.6787 52.9422 25.8216 51.6473 25.8216C50.3525 25.8216 49.4884 26.6787 49.4884 27.8766V34.9045H46.7772V27.8766C46.7772 26.6787 45.9144 25.8216 44.6195 25.8216C43.3246 25.8216 42.4372 26.6787 42.4372 27.8766V34.9045H39.5859V23.4444H42.4372V24.5933C43.209 23.6627 44.3334 23.0859 45.6528 23.0859L45.6412 23.0976Z" fill="#333333"/>
<path d="M62.7602 23.5977V34.9176H60V23.5977H62.7602Z" fill="#333333"/>
<path d="M61.3737 21.7982C62.2249 21.7982 62.9114 21.1116 62.9114 20.2663C62.9114 19.4209 62.2249 18.7344 61.3737 18.7344C60.5225 18.7344 59.8359 19.4209 59.8359 20.2663C59.8359 21.1116 60.5225 21.7982 61.3737 21.7982Z" fill="#333333"/>
<path d="M79.9478 23.0742C76.6038 23.0742 73.8984 25.7679 73.8984 29.0932C73.8984 32.4186 76.6096 35.1123 79.9478 35.1123C83.286 35.1123 85.9972 32.4186 85.9972 29.0932C85.9972 25.7679 83.286 23.0742 79.9478 23.0742ZM79.9478 32.4057C78.0575 32.4057 76.5256 30.8797 76.5256 28.9952C76.5256 27.1106 78.0575 25.5846 79.9478 25.5846C81.8382 25.5846 83.3712 27.1106 83.3712 28.9952C83.3712 30.8797 81.8393 32.4057 79.9478 32.4057Z" fill="#333333"/>
<path d="M4 20.5097C4 16.3764 7.35571 13.0195 11.489 13.0195H26.4695C30.604 13.0195 33.9597 16.3752 33.9597 20.5097V35.489C33.9597 39.6235 30.604 42.9792 26.4695 42.9792H11.489C7.35571 42.9804 4 39.6235 4 35.4902V20.5097Z" fill="#333333"/>
<path fill-rule="evenodd" clip-rule="evenodd" d="M23.9144 18.7344H21.1974L23.4649 22.7159L18.4792 18.7344H15.7622L18.255 23.5975L13.0452 18.7344H10.3281L13.0452 24.9297L10.3281 37.3192H13.0452L18.255 24.0482L15.7622 37.3192H18.4792L23.4649 23.1596L21.1974 37.3192H23.9144L28.9001 21.8344L23.9144 18.7402V18.7344Z" fill="white"/>
</svg>
