<svg width="51" height="56" viewBox="0 0 51 56" fill="none" xmlns="http://www.w3.org/2000/svg">
<mask id="mask0_963_691" style="mask-type:luminance" maskUnits="userSpaceOnUse" x="0" y="18" width="51" height="21">
<path d="M51 18.3086H0V38.4171H51V18.3086Z" fill="white"/>
</mask>
<g mask="url(#mask0_963_691)">
<path d="M4.2299 18.9795H0.605469V22.6039H4.2299V18.9795Z" fill="#333333"/>
<path d="M4.13994 37.862V24.8089H0.708984V37.862H4.13994ZM26.9442 37.991V34.7922C26.4412 34.7922 26.0155 34.7664 25.706 34.7148C25.3448 34.6632 25.0739 34.5342 24.8934 34.3537C24.7128 34.1731 24.5967 33.9151 24.5322 33.5798C24.4806 33.2573 24.4548 32.8317 24.4548 32.3157V27.7497H26.9442V24.8089H24.4548V19.7141H21.011V32.3415C21.011 33.4121 21.1012 34.315 21.2818 35.0373C21.4624 35.7467 21.772 36.3271 22.1976 36.7657C22.6233 37.2042 23.1908 37.5138 23.8744 37.7072C24.5709 37.9007 25.448 37.991 26.4927 37.991H26.9442ZM46.6528 37.862V18.708H43.209V37.862H46.6528ZM17.6961 26.0858C16.7416 25.054 15.4002 24.538 13.6976 24.538C12.8721 24.538 12.124 24.7057 11.4404 25.0411C10.7697 25.3764 10.1893 25.8408 9.73782 26.4341L9.54434 26.6792V26.4599V24.8089H6.15208V37.862H9.57014V30.9098V31.3871C9.57014 31.3097 9.57014 31.2323 9.57014 31.1549C9.60883 29.9295 9.90549 29.0267 10.473 28.4462C11.0792 27.8271 11.8144 27.5176 12.6528 27.5176C13.646 27.5176 14.407 27.8271 14.91 28.4204C15.4002 29.0138 15.6582 29.8522 15.6582 30.9227V30.9485V37.8491H19.1278V30.4455C19.1407 28.5881 18.6506 27.1177 17.6961 26.0858ZM41.429 31.3097C41.429 30.3681 41.2613 29.491 40.9389 28.6655C40.6035 27.8529 40.1392 27.1306 39.5588 26.5115C38.9654 25.8924 38.256 25.4151 37.4305 25.0669C36.605 24.7186 35.6893 24.5509 34.6961 24.5509C33.7545 24.5509 32.8645 24.7315 32.039 25.0798C31.2135 25.4409 30.4912 25.9182 29.885 26.5244C29.2788 27.1306 28.7887 27.8529 28.4404 28.6784C28.0792 29.5039 27.9116 30.3939 27.9116 31.3355C27.9116 32.277 28.0792 33.167 28.4146 33.9925C28.75 34.818 29.2272 35.5403 29.8205 36.1465C30.4138 36.7528 31.149 37.2429 32.0003 37.5912C32.8516 37.9523 33.7932 38.1329 34.7993 38.1329C37.7143 38.1329 39.5201 36.8044 40.6035 35.5661L38.127 33.683C37.6111 34.3021 36.3729 35.1405 34.8251 35.1405C33.8577 35.1405 33.058 34.9212 32.4518 34.4698C31.8456 34.0312 31.4328 33.4121 31.2135 32.6511L31.1748 32.535H41.429V31.3097ZM31.2006 30.1101C31.2006 29.1556 32.297 27.4918 34.6574 27.4789C37.0178 27.4789 38.127 29.1427 38.127 30.0972L31.2006 30.1101Z" fill="#333333"/>
<path d="M50.5753 36.1587C50.5108 36.004 50.4205 35.875 50.3044 35.7589C50.1883 35.6428 50.0593 35.5525 49.9046 35.488C49.7498 35.4235 49.5821 35.3848 49.4144 35.3848C49.2339 35.3848 49.0791 35.4235 48.9243 35.488C48.7695 35.5525 48.6405 35.6428 48.5244 35.7589C48.4084 35.875 48.3181 36.004 48.2536 36.1587C48.1891 36.3135 48.1504 36.4812 48.1504 36.6489C48.1504 36.8295 48.1891 36.9842 48.2536 37.139C48.3181 37.2938 48.4084 37.4228 48.5244 37.5389C48.6405 37.655 48.7695 37.7452 48.9243 37.8097C49.0791 37.8742 49.2468 37.9129 49.4144 37.9129C49.595 37.9129 49.7498 37.8742 49.9046 37.8097C50.0593 37.7452 50.1883 37.655 50.3044 37.5389C50.4205 37.4228 50.5108 37.2938 50.5753 37.139C50.6398 36.9842 50.6785 36.8166 50.6785 36.6489C50.6785 36.4812 50.6398 36.3135 50.5753 36.1587ZM50.3689 37.0616C50.3173 37.1906 50.2399 37.3067 50.1496 37.397C50.0593 37.4873 49.9433 37.5647 49.8143 37.6163C49.6853 37.6678 49.5563 37.6936 49.4015 37.6936C49.2596 37.6936 49.1178 37.6678 48.9888 37.6163C48.8598 37.5647 48.7437 37.4873 48.6534 37.397C48.5631 37.3067 48.4857 37.1906 48.4342 37.0616C48.3826 36.9326 48.3568 36.8037 48.3568 36.6489C48.3568 36.507 48.3826 36.3651 48.4342 36.2361C48.4857 36.1071 48.5631 35.9911 48.6534 35.9008C48.7437 35.8105 48.8598 35.7331 48.9888 35.6815C49.1178 35.6299 49.2468 35.6041 49.4015 35.6041C49.5434 35.6041 49.6853 35.6299 49.8143 35.6815C49.9433 35.7331 50.0593 35.8105 50.1496 35.9008C50.2399 35.9911 50.3173 36.1071 50.3689 36.2361C50.4205 36.3651 50.4463 36.4941 50.4463 36.6489C50.4592 36.8037 50.4205 36.9326 50.3689 37.0616ZM49.6466 36.7521C49.7498 36.7392 49.8272 36.7005 49.8917 36.636C49.9562 36.5715 49.9949 36.4812 49.9949 36.3522C49.9949 36.2103 49.9562 36.1071 49.8659 36.0298C49.7885 35.9524 49.6466 35.9137 49.4789 35.9137H48.9114V37.3712H49.1823V36.7779H49.3757L49.7369 37.3712H50.0206L49.6466 36.7521ZM49.5047 36.5457C49.466 36.5457 49.4273 36.5457 49.3757 36.5457H49.1823V36.1329H49.3757C49.4144 36.1329 49.4531 36.1329 49.5047 36.1329C49.5434 36.1329 49.5821 36.1458 49.6208 36.1587C49.6595 36.1716 49.6853 36.1974 49.6982 36.2232C49.7111 36.249 49.724 36.2877 49.724 36.3393C49.724 36.3909 49.7111 36.4296 49.6982 36.4554C49.6724 36.4812 49.6466 36.507 49.6208 36.5199C49.5821 36.5328 49.5434 36.5457 49.5047 36.5457Z" fill="#333333"/>
</g>
</svg>
