<svg width="36" height="56" viewBox="0 0 36 56" fill="none" xmlns="http://www.w3.org/2000/svg">
<g clip-path="url(#clip0_963_680)">
<mask id="mask0_963_680" style="mask-type:luminance" maskUnits="userSpaceOnUse" x="0" y="0" width="36" height="56">
<path d="M36 0H0V56H36V0Z" fill="white"/>
</mask>
<g mask="url(#mask0_963_680)">
<mask id="mask1_963_680" style="mask-type:luminance" maskUnits="userSpaceOnUse" x="-1" y="9" width="38" height="38">
<path d="M37 9H-1V47H37V9Z" fill="white"/>
</mask>
<g mask="url(#mask1_963_680)">
<path d="M18 9C7.50583 9 -1 17.5068 -1 28C-1 38.4932 7.50583 47 18 47C28.4942 47 37 38.4937 37 28C37 17.5063 28.4942 9 18 9Z" fill="white"/>
<path d="M18.0036 45.597C17.8283 45.597 17.654 45.5937 17.4806 45.5889L21.0768 35.7051H26.0258C26.8941 35.7051 27.8484 35.0373 28.1448 34.2217L32.0465 23.5043C32.6844 21.7496 31.6798 20.3142 29.8125 20.3142H22.9464L17.1856 36.1454H17.1832L13.9171 45.1191C6.16942 43.2766 0.40625 36.3122 0.40625 27.9997C0.40625 19.6872 5.84167 13.125 13.2521 11.0517L9.88155 20.3137L4.27797 35.7042H8.00767L12.7719 22.626H15.5744L10.8102 35.7042H14.538L18.9783 23.5033C19.6171 21.7487 18.6116 20.3132 16.7467 20.3132H13.6117L17.2127 10.4209C17.4749 10.4095 17.738 10.4023 18.0036 10.4023C27.7221 10.4023 35.6009 18.2812 35.6009 27.9997C35.6009 37.7182 27.7221 45.597 18.0036 45.597ZM28.6507 22.6179H25.8491L21.9247 33.3847H24.7272L28.6507 22.6179Z" fill="#333333"/>
</g>
</g>
</g>
<defs>
<clipPath id="clip0_963_680">
<rect width="36" height="56" fill="white"/>
</clipPath>
</defs>
</svg>
